<?xml version="1.0" standalone="no"?>
<!DOCTYPE svg PUBLIC "-//W3C//DTD SVG 20010904//EN"
 "http://www.w3.org/TR/2001/REC-SVG-20010904/DTD/svg10.dtd">
<svg version="1.0" xmlns="http://www.w3.org/2000/svg"
 width="512.000000pt" height="512.000000pt" viewBox="0 0 512.000000 512.000000"
 preserveAspectRatio="xMidYMid meet">
<metadata>
Created by potrace 1.11, written by Peter Selinger 2001-2013
</metadata>
<g transform="translate(0.000000,512.000000) scale(0.100000,-0.100000)"
fill="#000000" stroke="none">
<path d="M706 4849 c-182 -43 -351 -224 -385 -413 -15 -84 -15 -3668 0 -3752
34 -191 203 -370 389 -413 63 -15 3637 -15 3700 0 186 43 355 222 389 413 15
84 15 3668 0 3752 -34 191 -203 370 -389 413 -58 13 -3647 13 -3704 0z m3660
-256 c67 -23 154 -110 177 -177 16 -46 17 -192 17 -1856 0 -2057 9 -1863 -89
-1961 -98 -98 89 -89 -1911 -89 -2000 0 -1813 -9 -1911 89 -98 98 -89 -96 -89
1961 0 2057 -9 1863 89 1961 96 96 -90 87 1907 88 1622 1 1764 0 1810 -16z"/>
<path d="M2476 4479 c-45 -12 -74 -47 -87 -103 -6 -28 -15 -159 -18 -291 -7
-292 -4 -283 -119 -314 -103 -28 -284 -39 -346 -21 -69 19 -144 117 -195 256
-37 98 -61 112 -131 73 -39 -22 -70 -65 -70 -97 0 -75 127 -354 195 -429 l41
-46 89 -7 c94 -8 241 0 435 25 205 25 369 36 675 45 234 7 322 13 402 29 56
11 112 25 124 31 47 26 125 243 136 380 6 83 -7 125 -49 154 -23 16 -94 21
-114 8 -20 -13 -41 -66 -63 -162 -26 -118 -47 -155 -92 -164 -124 -25 -570
-38 -606 -18 -43 24 -47 45 -52 322 -7 320 -5 315 -111 334 -8 1 -28 -1 -44
-5z"/>
<path d="M2227 3441 c-15 -10 -52 -51 -82 -92 -29 -41 -74 -91 -100 -113 -152
-126 -584 -364 -787 -435 -48 -16 -156 -42 -240 -57 -84 -14 -163 -32 -175
-40 -30 -19 -46 -85 -40 -164 8 -111 34 -143 132 -161 62 -11 201 2 280 28 78
25 212 95 321 168 54 36 105 64 114 63 13 -3 15 -37 14 -258 0 -140 -7 -491
-15 -780 -15 -554 -14 -695 2 -747 26 -81 143 -92 208 -18 32 36 45 75 56 162
4 29 12 56 18 60 7 4 338 6 737 4 817 -3 807 -2 1030 -77 170 -58 260 -68 304
-33 35 28 56 76 56 128 0 113 -92 192 -282 240 -169 43 -282 55 -568 56 -151
1 -285 5 -297 9 -27 9 -43 54 -43 122 0 75 12 84 113 84 45 0 161 -7 257 -15
198 -16 199 -16 246 55 21 31 27 53 27 95 0 77 -17 112 -62 126 -42 13 -194 8
-387 -11 -71 -7 -143 -10 -158 -6 -50 12 -72 116 -44 207 21 73 15 72 336 77
317 4 322 6 348 67 19 46 18 135 -2 163 -32 46 -69 55 -194 49 -63 -3 -182
-16 -265 -27 -160 -23 -209 -21 -225 10 -17 31 -28 141 -18 176 12 46 53 58
249 74 161 14 577 59 605 66 47 12 68 50 72 127 3 63 1 77 -20 107 -49 72
-115 79 -273 30 -207 -65 -227 -69 -321 -72 -51 -1 -96 1 -100 5 -15 15 35
214 70 281 39 73 45 126 25 199 -22 80 -114 76 -385 -19 -188 -65 -288 -85
-348 -70 -23 6 -26 11 -26 49 0 50 -4 56 -54 96 -45 36 -70 38 -109 12z m653
-312 c0 -29 -77 -223 -101 -253 -25 -32 -89 -51 -224 -67 -186 -23 -489 -13
-576 20 -15 5 0 25 89 118 85 89 119 118 166 139 56 25 63 26 150 18 147 -14
291 -7 387 20 105 30 109 30 109 5z m-527 -531 l228 2 24 -24 c21 -22 25 -34
25 -90 0 -126 -39 -141 -432 -158 -217 -9 -270 -9 -282 2 -12 9 -16 33 -16
102 0 153 28 184 160 170 36 -4 168 -6 293 -4z m217 -528 c23 -6 25 -11 28
-75 4 -91 -17 -148 -61 -166 -24 -11 -100 -14 -315 -14 -341 0 -315 -12 -310
145 2 58 7 111 12 118 7 11 63 13 314 7 168 -5 318 -11 332 -15z m20 -509 c14
-27 12 -111 -3 -141 -7 -14 -24 -30 -38 -37 -54 -26 -256 -54 -428 -60 -208
-7 -201 -11 -201 112 0 115 0 115 150 121 69 3 193 9 275 13 245 13 233 13
245 -8z"/>
</g>
</svg>
