<?xml version="1.0" standalone="no"?>
<!DOCTYPE svg PUBLIC "-//W3C//DTD SVG 20010904//EN"
 "http://www.w3.org/TR/2001/REC-SVG-20010904/DTD/svg10.dtd">
<svg version="1.0" xmlns="http://www.w3.org/2000/svg"
 width="512.000000pt" height="512.000000pt" viewBox="0 0 512.000000 512.000000"
 preserveAspectRatio="xMidYMid meet">
<metadata>
Created by potrace 1.11, written by Peter Selinger 2001-2013
</metadata>
<g transform="translate(0.000000,512.000000) scale(0.100000,-0.100000)"
fill="#000000" stroke="none">
<path d="M2379 5116 c-2 -2 -38 -6 -79 -10 -41 -3 -85 -8 -97 -10 -11 -3 -43
-8 -70 -12 -59 -8 -65 -9 -128 -24 -27 -6 -58 -13 -68 -15 -93 -19 -331 -104
-459 -163 -732 -341 -1266 -1017 -1426 -1807 -38 -185 -47 -282 -47 -500 0
-208 7 -298 34 -450 64 -363 191 -680 397 -986 153 -229 366 -456 569 -607 39
-28 75 -55 80 -60 19 -15 150 -99 211 -134 214 -124 520 -237 769 -283 50 -10
97 -18 105 -20 22 -4 129 -17 175 -21 60 -5 386 -5 415 0 14 2 56 7 94 11 80
8 94 10 196 30 41 9 86 17 100 20 14 3 72 19 130 36 716 212 1301 724 1610
1407 50 111 135 353 145 415 3 18 12 57 20 87 13 53 28 143 43 259 14 114 7
540 -11 651 -23 143 -25 152 -52 260 -86 337 -216 610 -428 899 -90 123 -108
143 -262 296 -246 245 -534 433 -861 560 -143 56 -331 110 -449 130 -16 3 -39
7 -51 9 -12 2 -45 7 -74 11 -29 4 -62 9 -74 12 -24 5 -452 14 -457 9z"/>
</g>
</svg>
